{"title":"Naruto Shippuuden 242 mp4 55 mb Bzingaz.mp4","uid":6919937,"size":52439019,"categoryP":"video","categoryS":"tv_shows","magnet":"?xt=urn:btih:989fe6c6790655ebd008a566b401234ec6cb312d&amp;dn=Naruto+Shippuuden+242+mp4+55+mb+Bzingaz.mp4&amp;tr=udp%3A%2F%2Ftracker.openbittorrent.com%3A80&amp;tr=udp%3A%2F%2Fopen.demonii.com%3A1337&amp;tr=udp%3A%2F%2Ftracker.coppersurfer.tk%3A6969&amp;tr=udp%3A%2F%2Fexodus.desync.com%3A6969","seeders":0,"leechers":0,"uploader":"bzingaz","files":1,"time":1325174676,"description":"Naruto_Shippuuden_242 Eng Subbed BZINGAZ in mp4 format 55 mb size.            \n                                                               \n                              Download**Enjoy**Seed\n\n\n\nScreenshots:\n        &lt;a href=&quot;\nhttp://image.bayimg.com/dalnmaadj.jpg&quot; rel=&quot;nofollow&quot; target=&quot;_NEW&quot;&gt;\nhttp://image.bayimg.com/dalnmaadj.jpg&lt;/a&gt;\n        &lt;a href=&quot;\nhttp://image.bayimg.com/dalnoaadj.jpg&quot; rel=&quot;nofollow&quot; target=&quot;_NEW&quot;&gt;\nhttp://image.bayimg.com/dalnoaadj.jpg&lt;/a&gt;\n\n\nDetails are:\n\n\nNaruto_Shippuden_-_242.mp4\nFormat                           : MPEG-4\nFormat profile                   : Base Media\nCodec ID                         : isom\nFile size                        : 50.0 MiB\nDuration                         : 23mn 9s\nOverall bit rate                 : 302 Kbps\nEncoded date                     : UTC 2011-12-27 10:46:26\nTagged date                      : UTC 2011-12-27 10:46:26\nWriting application              : Yamb 2.1.0.0 [http://yamb.unite-video.com]\n\nVideo\nID                               : 1\nFormat                           : AVC\nFormat/Info                      : Advanced Video Codec\nFormat profile                   : &lt;a class=&quot;__cf_email__&quot; href=&quot;/cdn-cgi/l/email-protection&quot; data-cfemail=&quot;5911303e3119156b7768&quot;&gt;[email&amp;#160;protected]&lt;/a&gt;&lt;script cf-hash='f9e31' type=&quot;text/javascript&quot;&gt;\n/* &lt;![CDATA[ */!function(){try{var t=&quot;currentScript&quot;in document?document.currentScript:function(){for(var t=document.getElementsByTagName(&quot;script&quot;),e=t.length;e--;)if(t[e].getAttribute(&quot;cf-hash&quot;))return t[e]}();if(t&amp;&amp;t.previousSibling){var e,r,n,i,c=t.previousSibling,a=c.getAttribute(&quot;data-cfemail&quot;);if(a){for(e=&quot;&quot;,r=parseInt(a.substr(0,2),16),n=2;a.length-n;n+=2)i=parseInt(a.substr(n,2),16)^r,e+=String.fromCharCode(i);e=document.createTextNode(e),c.parentNode.replaceChild(e,c)}}}catch(u){}}();/* ]]&gt; */&lt;/script&gt;\nFormat settings, CABAC           : Yes\nFormat settings, ReFrames        : 5 frames\nCodec ID                         : avc1\nCodec ID/Info                    : Advanced Video Coding\nDuration                         : 23mn 9s\nBit rate mode                    : Variable\nBit rate                         : 267 Kbps\nMaximum bit rate                 : 2 064 Kbps\nWidth                            : 512 pixels\nHeight                           : 288 pixels\nDisplay aspect ratio             : 16:9\nFrame rate mode                  : Constant\nFrame rate                       : 23.810 fps\nColor space                      : YUV\nChroma subsampling               : 4:2:0\nBit depth                        : 8 bits\nScan type                        : Progressive\nBits/(Pixel*Frame)               : 0.076\nStream size                      : 44.2 MiB (88%)\nWriting library                  : x264 core 112 r1834 a51816a\n\n\nAudio\nID                               : 2\nFormat                           : AAC\nFormat/Info                      : Advanced Audio Codec\nFormat profile                   : HE-AAC / LC\nCodec ID                         : 40\nDuration                         : 23mn 9s\nBit rate mode                    : Variable\nBit rate                         : 32.0 Kbps\nMaximum bit rate                 : 36.1 Kbps\nChannel(s)                       : 2 channels\nChannel positions                : Front: L R\nSampling rate                    : 44.1 KHz / 22.05 KHz\nCompression mode                 : Lossy\nStream size                      : 5.30 MiB (11%)\nLanguage                         : Japanese\n","torrent":{"xt":"urn:btih:989fe6c6790655ebd008a566b401234ec6cb312d","amp;dn":"Naruto+Shippuuden+242+mp4+55+mb+Bzingaz.mp4","amp;tr":["udp%3A%2F%2Ftracker.openbittorrent.com%3A80","udp%3A%2F%2Fopen.demonii.com%3A1337","udp%3A%2F%2Ftracker.coppersurfer.tk%3A6969","udp%3A%2F%2Fexodus.desync.com%3A6969"],"infoHash":"989fe6c6790655ebd008a566b401234ec6cb312d","infoHashBuffer":{"type":"Buffer","data":[152,159,230,198,121,6,85,235,208,8,165,102,180,1,35,78,198,203,49,45]},"announce":[],"urlList":[]}}